<?xml version="1.0" standalone="no"?>
<!DOCTYPE svg PUBLIC "-//W3C//DTD SVG 20010904//EN"
 "http://www.w3.org/TR/2001/REC-SVG-20010904/DTD/svg10.dtd">
<svg version="1.0" xmlns="http://www.w3.org/2000/svg"
 width="400.000000pt" height="400.000000pt" viewBox="0 0 400.000000 400.000000"
 preserveAspectRatio="xMidYMid meet">
<metadata>
Created by potrace 1.11, written by Peter Selinger 2001-2013
</metadata>
<g transform="translate(0.000000,400.000000) scale(0.100000,-0.100000)"
fill="#000000" stroke="none">
<path d="M1203 3837 c-212 -269 -373 -501 -480 -692 -53 -95 -70 -135 -56
-135 12 0 307 319 315 340 3 9 37 39 75 66 310 221 475 405 421 471 -20 25
-129 93 -147 93 -9 0 -66 -65 -128 -143z"/>
<path d="M2743 3672 c-100 -48 -183 -90 -183 -93 0 -3 25 -33 55 -66 30 -34
55 -63 55 -66 0 -3 -19 -16 -42 -30 -24 -14 -77 -60 -118 -101 -61 -63 -80
-76 -106 -76 -54 0 -137 -19 -156 -37 -13 -12 -18 -31 -18 -74 0 -57 1 -58 41
-82 l41 -25 71 24 c39 13 76 24 82 24 9 0 8 -23 -6 -88 -35 -174 -90 -376
-113 -421 -14 -25 -27 -64 -31 -86 -14 -83 -90 -178 -181 -226 -48 -26 -53
-38 -26 -61 31 -27 53 -28 143 -7 101 23 101 24 167 154 73 147 149 432 183
691 12 89 12 91 -14 135 -15 25 -27 48 -27 51 0 4 22 9 50 13 117 16 259 117
365 261 62 83 115 174 115 195 0 8 -15 29 -33 47 -56 54 -97 47 -314 -56z"/>
<path d="M1684 3686 c-43 -14 -121 -63 -143 -90 -7 -9 -54 -39 -105 -68 -237
-135 -528 -360 -534 -412 l-4 -29 80 5 c74 4 91 10 204 65 77 38 151 84 198
122 79 65 188 127 201 114 17 -17 -76 -643 -120 -814 -11 -42 -30 -103 -43
-135 l-24 -59 -39 4 c-85 7 -90 7 -90 -13 0 -14 30 -32 125 -77 139 -64 176
-71 208 -36 41 43 102 263 147 527 57 337 104 540 166 720 22 63 42 122 45
132 4 11 -3 22 -22 34 -35 24 -190 30 -250 10z"/>
<path d="M2834 3233 c-3 -10 -10 -26 -16 -37 -10 -19 -11 -26 -23 -107 -6 -50
-54 -133 -86 -150 -29 -15 -23 -29 14 -29 l33 0 0 -192 c-1 -210 2 -226 62
-297 l27 -32 212 35 c189 32 231 36 395 36 154 0 188 3 218 18 45 22 47 40 16
105 -14 28 -31 89 -39 135 -12 68 -20 89 -44 115 -68 72 -188 285 -209 370 -6
27 -29 46 -40 34 -3 -3 4 -35 15 -71 25 -83 65 -271 91 -428 22 -142 21 -146
-63 -174 -42 -14 -59 -15 -99 -6 -58 14 -216 0 -335 -28 -103 -24 -113 -17
-113 84 0 107 18 257 34 281 19 28 125 78 224 106 90 24 87 20 56 94 -12 30
-17 32 -74 38 -33 4 -74 14 -90 22 -33 17 -31 20 -46 -50 -7 -31 -14 -41 -33
-43 -41 -6 -43 11 -12 84 27 63 28 70 14 87 -9 10 -30 17 -50 17 -23 0 -35 -5
-39 -17z"/>
<path d="M1091 2959 c-133 -102 -171 -136 -171 -154 0 -30 29 -37 120 -29 38
4 70 4 70 0 0 -4 -11 -22 -25 -40 -21 -28 -25 -44 -25 -103 0 -60 3 -73 23
-91 13 -13 36 -22 53 -22 34 0 138 58 171 95 29 33 18 66 -25 79 -45 14 -47
33 -11 90 76 120 106 174 123 215 17 43 17 44 -5 67 -18 19 -33 24 -74 24 -52
0 -55 -2 -224 -131z"/>
<path d="M480 2815 c-10 -12 -10 -21 -2 -38 6 -12 16 -84 22 -160 22 -263 67
-349 143 -269 39 40 100 178 105 238 5 56 -10 113 -40 156 -39 56 -200 107
-228 73z"/>
<path d="M830 2721 c-5 -11 -10 -53 -10 -94 0 -74 0 -75 40 -111 22 -20 44
-36 48 -36 4 0 32 25 62 56 l55 56 -80 74 c-44 40 -85 74 -92 74 -7 0 -17 -9
-23 -19z"/>
<path d="M2225 2614 c-51 -36 -74 -38 -162 -17 -19 4 -23 1 -23 -20 0 -41 16
-74 62 -123 57 -62 69 -67 115 -49 l38 15 0 68 c0 58 4 75 28 110 15 23 27 44
27 47 0 15 -41 0 -85 -31z"/>
<path d="M2777 2123 c-8 -10 -29 -45 -46 -78 -37 -71 -67 -109 -81 -100 -5 3
-10 1 -10 -4 0 -19 46 -12 66 10 19 21 60 23 107 4 9 -4 17 -3 17 3 0 11 -34
22 -72 22 -16 0 -28 2 -28 4 0 16 36 86 56 106 14 15 20 30 15 38 -6 10 -11 8
-24 -5z"/>
<path d="M1341 2071 c-17 -33 -36 -63 -41 -66 -6 -4 -10 -17 -10 -31 l0 -25
33 25 c42 32 47 32 47 1 0 -14 3 -25 8 -25 12 1 58 40 47 40 -6 0 -16 -5 -23
-12 -9 -9 -12 -6 -12 15 0 31 -15 34 -49 11 -23 -16 -23 -16 -11 7 7 13 16 26
20 29 17 12 41 73 32 82 -5 5 -21 -14 -41 -51z"/>
<path d="M1912 2118 c-20 -26 -84 -159 -79 -165 4 -3 20 6 37 21 36 29 55 34
46 10 -10 -27 4 -36 30 -19 22 14 25 14 30 0 9 -21 47 -19 78 6 36 28 25 37
-12 10 -37 -26 -62 -29 -39 -3 8 9 16 21 15 25 0 5 4 12 8 15 4 4 4 1 -1 -7
-5 -9 -3 -12 5 -9 22 7 23 28 2 28 -12 0 -30 -12 -41 -26 -12 -15 -21 -24 -21
-20 0 4 -9 2 -20 -4 -19 -10 -20 -9 -14 14 5 21 3 26 -13 26 -10 0 -24 -5 -31
-12 -24 -24 -20 -1 9 41 33 50 43 108 11 69z"/>
<path d="M860 2109 c-27 -11 -70 -48 -70 -60 0 -4 6 -9 13 -12 9 -3 13 2 13
15 -1 24 55 58 96 58 58 0 77 -63 32 -105 -25 -23 -80 -42 -90 -32 -10 10 27
68 49 77 17 7 18 9 5 9 -10 1 -18 8 -18 16 0 8 -4 15 -10 15 -5 0 -10 -9 -10
-19 0 -11 -3 -21 -7 -23 -5 -1 -18 -24 -30 -50 l-23 -48 33 0 c42 1 110 32
131 61 49 71 -24 134 -114 98z"/>
<path d="M1276 2095 c-3 -8 -11 -15 -18 -15 -26 0 -88 -21 -88 -30 0 -4 16 -4
36 2 20 5 39 7 42 3 3 -3 -13 -25 -37 -48 -39 -39 -42 -40 -36 -16 9 35 -22
44 -64 18 -17 -10 -31 -16 -31 -13 0 3 -16 -4 -36 -16 -47 -30 -56 -17 -13 20
l34 29 -27 1 c-31 0 -64 -40 -54 -65 7 -19 50 -19 66 0 13 15 35 21 26 7 -2
-4 -1 -14 4 -22 8 -12 14 -11 38 7 26 19 29 20 39 4 10 -14 15 -12 47 18 l36
35 0 -32 c0 -18 4 -32 9 -32 6 0 7 16 4 35 -5 29 -1 39 25 65 17 16 38 30 47
30 9 0 14 4 10 10 -3 5 -12 7 -20 3 -8 -3 -15 0 -15 6 0 16 -17 13 -24 -4z
m-145 -115 c-30 -26 -49 -26 -26 0 10 11 25 20 34 20 12 -1 10 -5 -8 -20z"/>
<path d="M1820 2095 c-7 -8 -18 -15 -24 -15 -27 0 -86 -22 -86 -32 0 -6 8 -7
18 -3 9 3 30 9 47 12 l29 6 -34 -44 c-19 -25 -24 -36 -12 -25 22 19 22 19 22
-7 0 -14 5 -29 10 -32 6 -4 10 8 10 30 0 44 23 81 56 89 13 4 24 11 24 17 0 6
-5 7 -10 4 -6 -4 -17 -2 -24 4 -10 8 -17 7 -26 -4z"/>
<path d="M1560 2080 c0 -5 5 -10 10 -10 6 0 10 5 10 10 0 6 -4 10 -10 10 -5 0
-10 -4 -10 -10z"/>
<path d="M935 2070 c-3 -5 -1 -10 4 -10 6 0 11 5 11 10 0 6 -2 10 -4 10 -3 0
-8 -4 -11 -10z"/>
<path d="M2690 2040 c0 -5 7 -7 15 -4 8 4 15 8 15 10 0 2 -7 4 -15 4 -8 0 -15
-4 -15 -10z"/>
<path d="M1519 2010 c-19 -16 -20 -19 -5 -13 16 5 18 3 13 -16 -9 -36 18 -36
63 -1 24 19 40 26 40 18 0 -20 -13 -35 -35 -40 -18 -5 -19 -6 -2 -13 12 -5 31
1 58 20 23 14 38 29 35 32 -3 3 -12 0 -21 -7 -12 -10 -15 -10 -15 1 0 8 -5 21
-10 29 -8 13 -11 13 -22 -1 -7 -9 -26 -25 -42 -35 l-29 -18 5 27 c7 36 -4 42
-33 17z"/>
<path d="M2324 2005 c-18 -28 -13 -55 12 -55 9 0 33 10 52 22 31 19 35 20 29
4 -10 -26 1 -38 24 -26 23 13 26 32 3 23 -14 -5 -15 -3 -5 15 22 40 10 42 -44
6 -56 -38 -93 -39 -42 -2 32 23 35 38 7 38 -11 0 -27 -11 -36 -25z"/>
<path d="M2850 2009 c-23 -18 -23 -20 -4 -14 18 5 21 2 16 -20 -6 -34 17 -33
59 2 30 26 32 26 27 7 -11 -42 8 -50 37 -16 14 17 35 34 46 37 10 4 16 11 13
17 -4 5 -21 -5 -41 -24 l-36 -33 7 28 c8 34 -5 35 -48 2 -41 -31 -48 -31 -40
-1 8 33 -7 38 -36 15z"/>
<path d="M3061 2004 c-39 -49 10 -75 63 -33 36 28 25 37 -12 10 -17 -12 -35
-21 -41 -21 -17 0 -13 17 5 24 8 3 13 10 9 15 -3 5 0 13 6 17 8 5 9 3 4 -6 -5
-8 -3 -11 5 -8 22 7 23 28 2 28 -12 0 -30 -12 -41 -26z"/>
<path d="M2154 2004 c-16 -13 -16 -15 -2 -10 15 4 16 3 6 -14 -20 -31 -2 -34
35 -6 l35 27 6 -26 c8 -31 27 -32 52 -2 10 12 12 16 4 10 -21 -19 -39 -16 -33
6 7 27 -13 34 -42 15 -23 -15 -25 -15 -25 0 0 20 -11 20 -36 0z"/>
<path d="M2470 2006 c-14 -18 3 -56 25 -56 14 0 55 46 55 61 0 18 -17 8 -28
-16 -14 -30 -37 -34 -29 -5 6 25 -7 34 -23 16z"/>
<path d="M2585 1768 c-120 -139 -210 -274 -232 -347 -9 -31 -29 -75 -45 -97
-47 -71 -128 -225 -139 -267 -9 -35 -8 -41 9 -53 12 -8 23 -31 27 -54 4 -23
16 -50 28 -61 34 -31 70 -24 140 29 123 94 403 252 444 252 14 0 15 -12 9 -82
-9 -113 -26 -208 -42 -240 -13 -24 -10 -34 27 -115 l41 -88 -21 -142 c-27
-177 -21 -212 49 -285 l46 -48 116 0 c107 0 119 2 174 30 32 16 83 52 112 80
53 50 54 52 36 72 -18 19 -26 20 -189 12 -269 -12 -241 -15 -237 29 4 48 38
127 86 198 42 62 46 107 16 157 -11 18 -36 40 -55 48 -45 18 -49 59 -8 75 49
18 75 70 92 179 8 53 9 76 1 86 -19 22 -1 105 28 129 104 83 167 187 178 290
6 58 5 61 -31 102 -53 62 -180 163 -204 163 -31 0 -51 -40 -63 -122 -6 -40
-21 -95 -33 -123 -31 -70 -113 -156 -212 -221 -87 -57 -211 -119 -220 -110
-12 12 136 406 198 528 49 97 49 108 5 108 -32 0 -43 -10 -131 -112z"/>
<path d="M1032 1698 c-17 -17 -15 -66 4 -121 19 -55 78 -117 140 -148 25 -12
48 -27 51 -34 5 -15 -116 -201 -164 -252 -17 -18 -36 -46 -43 -63 -16 -38 -66
-83 -128 -114 -58 -29 -212 -82 -280 -97 -50 -10 -52 -12 -52 -44 0 -27 9 -41
46 -74 54 -48 85 -56 173 -45 36 4 70 8 75 9 6 0 17 -25 26 -55 30 -101 70
-153 126 -169 32 -9 32 -9 19 -123 -4 -39 -4 -68 1 -68 5 0 36 41 69 90 l60
89 78 27 c44 14 94 39 112 55 20 18 44 29 62 29 89 0 217 70 297 162 246 283
258 307 187 371 -52 47 -96 69 -140 70 -157 2 -232 -6 -352 -39 -137 -37 -149
-39 -149 -24 0 6 67 79 150 163 148 153 149 154 133 178 -27 40 -96 110 -125
125 -30 16 -109 18 -177 5 -40 -8 -46 -6 -80 23 -75 67 -107 86 -119 74z m678
-678 c0 -15 -7 -33 -15 -40 -7 -6 -28 -37 -46 -68 -94 -167 -222 -281 -253
-227 -53 88 -107 162 -129 174 -19 10 -27 22 -27 41 0 25 8 29 157 80 86 29
184 63 217 75 55 20 63 21 79 7 9 -8 17 -27 17 -42z m-540 -209 c0 -22 -87
-262 -99 -274 -5 -5 -14 -7 -19 -3 -16 10 -35 104 -29 145 4 31 1 39 -17 47
-15 7 -21 18 -21 43 0 34 1 35 80 62 72 24 81 25 93 11 6 -9 12 -23 12 -31z"/>
<path d="M389 855 c-3 -2 3 -58 13 -122 10 -65 29 -194 43 -288 35 -238 30
-222 71 -230 19 -3 44 -15 54 -25 20 -20 50 -17 99 9 31 17 27 59 -19 204 -79
247 -161 412 -221 443 -31 16 -34 16 -40 9z"/>
</g>
</svg>
